<?xml version="1.0" standalone="no"?>
<!DOCTYPE svg PUBLIC "-//W3C//DTD SVG 20010904//EN"
 "http://www.w3.org/TR/2001/REC-SVG-20010904/DTD/svg10.dtd">
<svg version="1.0" xmlns="http://www.w3.org/2000/svg"
 width="698.000000pt" height="1116.000000pt" viewBox="0 0 698.000000 1116.000000"
 preserveAspectRatio="xMidYMid meet">

<g transform="translate(0.000000,1116.000000) scale(0.100000,-0.100000)"
fill="#000000" stroke="none">
<path d="M2932 9780 c-57 -27 -63 -28 -69 -12 -4 9 -11 20 -17 24 -15 10 -70
-16 -144 -69 -225 -158 -219 -155 -226 -130 -11 43 -6 88 15 116 25 34 18 51
-20 51 -27 0 -148 -61 -256 -128 -49 -30 -50 -31 -58 -10 -4 11 -2 49 4 85 10
56 9 67 -5 81 -15 15 -21 14 -82 -16 -36 -18 -90 -56 -120 -84 -45 -43 -54
-47 -54 -30 0 12 15 32 35 48 38 29 43 45 20 64 -21 18 -66 -4 -153 -74 -108
-87 -220 -214 -289 -326 -38 -63 -73 -194 -73 -276 0 -67 -2 -74 -20 -74 -28
0 -83 -77 -147 -205 -49 -99 -55 -119 -60 -190 -3 -48 0 -98 7 -125 18 -66 16
-87 -13 -165 -68 -177 -75 -335 -22 -490 36 -107 50 -128 117 -180 32 -25 58
-52 58 -60 0 -9 -12 -39 -26 -68 -24 -46 -26 -59 -21 -127 7 -80 51 -244 91
-332 13 -29 27 -63 31 -76 4 -13 38 -88 76 -167 38 -79 69 -146 69 -150 0 -3
11 -30 24 -58 13 -29 28 -68 35 -87 95 -279 191 -593 250 -822 71 -274 77
-283 216 -367 231 -140 558 -269 755 -297 148 -21 168 -29 185 -71 9 -20 14
-37 13 -38 -2 -1 -24 -13 -49 -28 -62 -35 -133 -115 -194 -218 -29 -49 -110
-232 -193 -439 -195 -482 -196 -483 -187 -545 8 -50 9 -79 6 -145 -1 -19 1
-69 5 -111 6 -72 5 -77 -24 -123 -32 -49 -102 -216 -102 -240 0 -11 -21 -14
-97 -15 -95 -1 -333 -25 -382 -39 -16 -4 -27 -17 -32 -36 -4 -15 -14 -36 -23
-45 -46 -51 -126 -331 -128 -445 -1 -88 20 -140 83 -209 35 -39 55 -51 100
-62 96 -25 234 -35 495 -35 l251 0 6 -132 c14 -284 20 -526 13 -551 -5 -21
-18 -29 -73 -47 -55 -18 -78 -33 -118 -75 -28 -28 -59 -57 -70 -62 -25 -14
-164 -48 -322 -78 -179 -35 -223 -64 -274 -179 -43 -99 -24 -142 84 -192 61
-28 67 -29 287 -35 362 -10 602 15 793 80 138 48 255 66 417 64 165 -1 210 -8
645 -93 340 -66 379 -72 495 -65 149 9 222 22 325 57 117 39 151 61 177 112
29 57 37 168 14 210 -25 45 -91 91 -166 114 -36 11 -126 39 -202 63 l-136 44
-6 35 c-5 30 -11 37 -38 45 l-33 10 -97 340 c-92 319 -117 410 -219 805 -22
85 -63 232 -90 327 -27 94 -49 182 -49 195 0 13 -9 52 -20 86 -26 84 -25 103
8 134 l27 26 77 -16 76 -16 124 33 c68 19 163 51 211 73 99 43 108 44 143 22
31 -21 105 -14 162 15 38 19 122 104 122 123 0 5 12 13 27 19 51 19 313 181
328 202 8 12 15 28 15 37 0 28 -101 294 -150 395 -58 121 -141 247 -180 275
-34 24 -67 25 -136 3 l-53 -16 -85 77 c-46 42 -106 102 -132 133 l-48 56 22
36 c66 106 92 193 92 311 0 68 -4 92 -21 119 -19 32 -20 35 -3 75 10 24 16 66
16 102 l0 60 51 33 c126 79 202 148 316 291 119 148 200 287 226 385 28 111
12 382 -29 479 -22 53 -20 68 14 130 45 80 79 190 91 296 25 216 2 757 -41
996 -53 295 -265 667 -477 837 -104 84 -209 139 -433 228 -257 102 -322 123
-489 154 -119 22 -161 25 -371 25 -273 0 -257 -7 -238 100 6 31 8 65 5 74 -10
25 -58 19 -110 -14 -26 -16 -50 -30 -52 -30 -14 0 -2 49 15 65 25 23 25 40 1
57 -20 14 -20 15 2 56 18 37 19 44 6 57 -28 28 -62 27 -127 -5z m-1213 -3274
c-1 -15 -28 46 -28 64 0 8 6 0 14 -19 8 -18 15 -38 14 -45z m39 -114 c-4 -2 0
-15 9 -28 8 -14 13 -27 9 -31 -3 -4 1 -14 10 -24 9 -10 14 -25 11 -32 -3 -8 3
-27 12 -43 20 -32 33 -86 20 -78 -5 3 -9 -3 -10 -13 0 -13 -3 -11 -9 7 -14 45
-90 320 -90 327 0 4 10 -13 23 -37 12 -25 19 -46 15 -48z m1698 -209 l20 -58
42 4 c89 6 157 -40 155 -107 -1 -28 -8 -43 -33 -63 l-31 -27 43 -35 c24 -19
76 -51 116 -72 47 -24 69 -41 62 -45 -9 -5 -6 -10 9 -15 13 -4 25 -4 28 -1 4
3 -1 6 -11 6 -10 0 -14 5 -11 11 4 6 26 8 56 5 43 -5 80 2 154 29 11 4 0 -5
-25 -20 -24 -14 -58 -29 -75 -32 -16 -3 -35 -10 -41 -14 -36 -29 -269 -18
-335 15 -18 9 -39 17 -48 17 -9 1 2 5 24 10 38 7 37 8 -12 5 -29 -2 -50 0 -48
4 3 4 -17 13 -43 19 -65 17 -165 78 -244 150 -67 62 -102 111 -138 197 l-20
46 25 -4 c14 -3 87 3 162 12 210 27 195 30 219 -37z m-1483 20 c34 -9 57 -21
57 -29 0 -7 7 -32 16 -54 16 -39 18 -40 63 -40 86 0 121 -65 60 -113 l-31 -24
56 -49 c79 -69 113 -86 163 -82 24 2 38 -1 33 -6 -5 -5 -42 -11 -82 -13 -49
-3 -68 -1 -59 5 10 7 4 10 -24 10 -44 0 -68 17 -45 33 11 8 9 9 -12 5 -14 -3
-28 -2 -30 2 -2 4 -24 20 -51 35 -26 16 -65 50 -86 76 -39 51 -114 195 -127
245 -6 27 -5 29 17 22 13 -4 50 -14 82 -23z m3014 -1 c9 -21 -36 -53 -58 -41
-42 22 -22 71 26 61 15 -2 29 -11 32 -20z m-3149 -99 c-15 -18 -21 -9 -13 18
6 16 9 18 16 8 4 -8 3 -19 -3 -26z m17 -13 c-3 -5 -3 -10 2 -10 4 0 9 -21 11
-48 4 -72 4 -73 18 -61 8 7 14 6 20 -2 4 -8 3 -9 -4 -5 -7 4 -12 3 -12 -3 0
-5 -3 -18 -6 -28 -5 -16 -4 -16 10 1 14 17 16 18 16 3 0 -9 -4 -17 -10 -17 -5
0 -10 -7 -10 -15 0 -8 5 -15 10 -15 6 0 10 -11 10 -25 0 -14 -5 -25 -11 -25
-6 0 -8 9 -3 23 3 12 3 19 -2 14 -4 -4 -20 34 -36 85 -27 89 -29 138 -7 138 6
0 7 -4 4 -10z m2265 -233 c0 -2 -10 -12 -22 -23 l-23 -19 19 23 c18 21 26 27
26 19z m-2194 -22 c-3 -8 -1 -15 5 -15 5 0 7 -11 3 -25 -4 -15 -2 -25 4 -25 7
0 9 -13 5 -34 -3 -19 -1 -36 6 -40 6 -4 11 -16 11 -27 0 -10 4 -19 8 -19 12 0
43 -135 35 -156 -6 -17 -5 -17 10 -5 11 9 17 10 17 2 0 -6 -5 -11 -10 -11 -7
0 -7 -7 0 -21 7 -12 18 -18 26 -15 8 3 12 2 9 -3 -3 -5 -1 -12 5 -16 5 -3 10
0 10 7 0 7 6 4 12 -7 17 -29 41 -45 58 -39 8 3 11 2 7 -2 -4 -4 1 -14 11 -21
26 -22 -78 36 -117 65 -39 29 -82 114 -48 97 6 -4 5 -1 -4 7 -9 7 -22 30 -29
52 -10 32 -10 40 1 47 13 8 5 13 -15 10 -5 -1 -6 7 -3 19 3 11 2 18 -2 16 -3
-2 -14 29 -24 69 -16 62 -16 77 -5 89 17 20 22 20 14 1z m294 -506 c17 -13 18
-17 5 -10 -33 17 -51 31 -40 31 6 0 21 -10 35 -21z m66 -35 c18 -14 18 -14 -6
-3 -31 14 -36 19 -24 19 6 0 19 -7 30 -16z m1870 -63 c-8 -13 21 -34 39 -27 8
3 15 1 15 -3 0 -5 -7 -11 -15 -15 -18 -6 -69 41 -52 48 18 7 19 7 13 -3z m47
-8 c-7 -2 -19 -2 -25 0 -7 3 -2 5 12 5 14 0 19 -2 13 -5z m-91 -20 c-7 -3 -19
-11 -27 -20 -9 -9 -15 -10 -15 -3 0 6 -5 8 -10 5 -8 -5 -7 -12 2 -23 12 -15
11 -16 -4 -3 -10 7 -18 17 -18 21 0 9 73 38 80 32 3 -3 -1 -7 -8 -9z m-71 -47
c16 -35 6 -64 -45 -122 -25 -28 -43 -54 -41 -58 3 -3 2 -4 -2 -1 -3 3 -17 -2
-30 -10 -12 -8 -60 -27 -105 -41 -89 -28 -234 -91 -227 -99 3 -2 36 5 73 16
47 14 72 17 79 10 7 -7 2 -8 -14 -4 -20 4 -19 1 9 -16 18 -12 37 -32 44 -46 6
-13 14 -23 17 -21 9 5 7 -245 -2 -329 -16 -142 -31 -211 -59 -267 -18 -38 -28
-73 -28 -103 0 -69 -62 -184 -157 -291 -28 -33 -74 -85 -102 -117 -28 -31 -51
-65 -51 -74 0 -9 -3 -13 -7 -10 -10 10 -54 -34 -46 -46 3 -6 1 -7 -6 -3 -6 4
-29 -7 -52 -25 l-41 -33 -62 13 c-91 19 -292 78 -364 106 -124 50 -98 14 43
-58 119 -61 213 -97 233 -90 10 4 13 2 8 -5 -5 -8 1 -13 16 -14 13 -1 32 -2
43 -3 11 -1 31 -6 45 -12 14 -5 32 -13 40 -16 28 -11 -75 5 -186 29 -149 33
-303 86 -357 123 l-45 30 5 88 c8 158 39 234 152 381 39 50 87 123 107 162 34
69 83 252 84 315 1 17 9 76 18 133 10 56 15 102 11 102 -9 0 -62 -168 -61
-193 0 -10 -4 -15 -10 -11 -6 4 -8 -1 -3 -15 4 -12 -1 -57 -10 -99 -24 -113
-26 -117 -36 -101 -5 8 -9 21 -9 29 0 13 2 13 11 0 9 -13 10 -13 6 2 -3 9 -3
19 1 22 3 4 8 14 10 24 2 9 5 26 7 37 14 64 14 76 -1 35 -39 -109 -78 -208
-96 -243 -18 -36 -18 -38 -1 -35 10 2 24 10 31 18 7 8 5 0 -5 -18 -10 -18 -19
-28 -21 -22 -2 5 -10 10 -18 10 -13 0 -18 -12 -15 -32 0 -5 -4 -8 -10 -8 -5 0
-7 -4 -4 -10 3 -5 2 -10 -3 -10 -14 0 -85 -109 -86 -132 -1 -10 -5 -22 -11
-26 -11 -8 -26 -45 -57 -137 -13 -41 -19 -82 -17 -130 1 -38 1 -85 0 -104 -1
-32 -2 -33 -33 -27 -17 3 -46 18 -65 32 -25 19 -33 21 -33 10 0 -24 50 -64 88
-71 27 -5 32 -9 21 -16 -11 -8 -10 -9 6 -7 13 3 19 10 17 23 -2 17 -1 18 7 4
12 -19 -7 -89 -25 -96 -7 -3 -10 -12 -7 -21 3 -12 2 -13 -4 -4 -5 7 -20 14
-34 17 -13 2 -41 23 -63 46 -37 39 -38 43 -31 87 8 52 9 81 4 162 -2 45 4 69
33 135 32 74 89 217 224 568 61 157 149 321 207 384 36 39 121 103 137 103 4
0 18 -20 31 -44 13 -25 27 -42 31 -40 12 7 -17 70 -58 125 -35 48 -35 49 -12
51 103 7 96 9 136 -40 20 -26 40 -48 43 -50 4 -2 5 -12 2 -22 -3 -12 0 -20 6
-20 23 0 51 21 50 38 0 10 -3 12 -6 4 -2 -6 -9 -10 -14 -6 -5 3 -8 0 -7 -7 2
-6 -2 -13 -9 -16 -7 -3 -10 3 -6 16 7 27 32 35 53 16 16 -14 22 -12 76 23 74
49 173 89 367 148 84 25 170 52 192 59 59 19 74 18 86 -9z m157 -4 c2 -7 -1
-12 -8 -12 -6 0 -9 4 -6 9 4 5 1 12 -4 14 -6 3 -5 4 2 3 6 -1 14 -8 16 -14z
m-97 -39 c13 -16 12 -17 -3 -4 -10 7 -18 15 -18 17 0 8 8 3 21 -13z m-20 -10
c1 -9 5 -29 10 -53 2 -8 -2 -14 -8 -12 -7 1 -13 -2 -13 -8 0 -5 5 -10 12 -10
6 0 9 -2 6 -5 -3 -3 -16 -2 -29 3 l-23 9 21 12 c20 10 29 51 11 51 -4 0 -8 5
-8 10 0 11 20 14 21 3z m59 -13 c0 -5 -5 -10 -11 -10 -5 0 -7 5 -4 10 3 6 8
10 11 10 2 0 4 -4 4 -10z m54 -9 c3 -5 -9 -18 -27 -28 -43 -26 -70 -35 -62
-23 3 6 10 10 15 10 5 0 24 9 42 21 25 16 27 19 9 14 -16 -5 -21 -4 -17 4 9
13 33 15 40 2z m-63 -19 c-7 -2 -18 1 -23 6 -8 8 -4 9 13 5 13 -4 18 -8 10
-11z m-71 -1 c0 -5 -9 -13 -21 -16 -12 -4 -18 -12 -15 -21 3 -8 -1 -14 -9 -14
-7 0 -16 -4 -19 -9 -4 -5 4 -7 16 -5 21 4 22 4 3 -5 -46 -22 -47 -6 -3 43 31
36 48 45 48 27z m-810 -46 c-7 -9 -16 -12 -19 -7 -3 5 -15 12 -26 15 -11 3 -3
5 19 6 34 1 37 -1 26 -14z m6 -20 c8 10 14 14 14 8 0 -7 -4 -15 -10 -18 -5 -3
-10 -11 -10 -16 0 -6 5 -7 10 -4 6 3 10 2 10 -4 0 -23 -17 -16 -45 18 -21 25
-23 30 -6 16 22 -19 23 -19 37 0z m899 -15 c-3 -5 -14 -10 -23 -10 -15 0 -15
2 -2 10 20 13 33 13 25 0z m35 -24 c0 -21 -19 -30 -35 -16 -11 9 -23 9 -45 2
-18 -7 -30 -7 -30 -1 0 5 -7 9 -15 9 -8 0 -15 -4 -15 -10 0 -5 -10 -10 -22
-10 -16 0 -19 3 -11 11 7 7 37 13 67 14 31 1 59 5 63 8 12 13 43 7 43 -7z
m-190 -37 c12 -8 10 -9 -7 -4 -24 7 -75 -4 -69 -14 3 -4 -4 -7 -15 -7 -29 0
-23 12 14 24 43 13 59 14 77 1z m146 -5 c19 -15 19 -15 -1 -6 -11 5 -27 12
-35 15 -13 5 -13 6 1 6 8 1 24 -6 35 -15z m-161 -14 c3 -5 -1 -10 -9 -10 -9 0
-16 5 -16 10 0 6 4 10 9 10 6 0 13 -4 16 -10z m239 -2 c-3 -4 2 -8 10 -8 32 0
117 -63 160 -118 24 -31 49 -56 55 -54 7 1 10 -2 6 -8 -9 -14 14 -42 28 -33 6
3 7 1 3 -5 -4 -6 25 -35 70 -69 138 -104 176 -145 222 -238 62 -124 77 -189
75 -322 -1 -108 -2 -113 -27 -136 -29 -27 -139 -57 -207 -57 -22 0 -39 -4 -39
-10 0 -18 54 -23 128 -11 41 7 75 11 77 9 2 -2 -2 -24 -8 -51 -10 -44 -13 -48
-51 -59 -45 -12 -170 -17 -181 -7 -3 4 -9 33 -12 65 -5 48 -11 62 -37 85 -35
31 -52 82 -64 195 -6 57 -15 81 -45 126 -20 31 -57 99 -81 152 -50 108 -76
146 -156 231 -74 78 -130 146 -130 157 0 5 4 7 9 4 4 -3 7 8 5 24 -5 39 34 84
97 111 27 12 47 25 44 29 -2 3 9 7 25 7 16 0 27 -4 24 -9z m-354 -8 c0 -5 7
-10 15 -10 8 0 15 -4 15 -9 0 -12 -39 -25 -47 -17 -4 3 2 6 13 6 18 1 18 1 1
14 -10 8 -28 12 -40 10 -21 -4 -21 -4 -2 5 27 13 45 13 45 1z m267 4 c-3 -3
-12 -4 -19 -1 -8 3 -5 6 6 6 11 1 17 -2 13 -5z m-33 -24 c-10 -4 -22 -6 -26
-4 -4 3 -9 -5 -13 -16 -3 -11 -10 -20 -15 -20 -5 0 -12 -9 -15 -20 -4 -11 -11
-18 -16 -15 -5 4 -5 11 1 18 5 7 21 26 35 44 19 23 31 30 47 25 21 -5 21 -6 2
-12z m-285 -9 c12 -11 18 -22 12 -25 -5 -3 -12 0 -14 6 -4 10 -8 10 -15 -1 -7
-9 -12 -10 -16 -2 -4 6 -2 11 3 11 6 0 11 4 11 9 0 4 -12 7 -27 4 -24 -3 -25
-2 -8 6 28 13 29 13 54 -8z m116 6 c-17 -13 -17 -15 3 -35 20 -20 19 -32 -1
-32 -6 0 -7 3 -4 6 3 4 0 16 -8 26 -16 24 -10 48 13 48 13 0 13 -2 -3 -13z
m115 9 c0 -2 -8 -10 -17 -17 -16 -13 -17 -12 -4 4 13 16 21 21 21 13z m-83
-22 c-3 -3 -12 -4 -19 -1 -8 3 -5 6 6 6 11 1 17 -2 13 -5z m-155 -51 c16 5 34
-20 23 -31 -3 -3 -5 0 -5 7 0 7 -5 9 -11 6 -12 -8 -72 49 -62 59 4 4 14 -5 22
-19 10 -16 22 -24 33 -22z m198 39 c0 -5 -7 -9 -15 -9 -8 0 -15 4 -15 9 0 4 7
8 15 8 8 0 15 -4 15 -8z m-16 -62 c3 0 3 8 -1 18 -5 14 -3 13 10 -3 18 -23 21
-41 8 -49 -5 -4 -7 4 -3 16 4 19 3 21 -9 11 -11 -9 -18 -8 -33 3 -11 8 -14 14
-8 14 7 0 12 8 13 18 0 13 2 12 9 -5 5 -13 12 -23 14 -23z m-51 -57 c-6 -15
-23 -17 -23 -3 0 6 6 10 13 11 10 0 10 2 0 6 -7 2 -13 12 -13 21 0 13 2 13 14
-3 8 -11 12 -25 9 -32z m-111 -7 c6 4 5 -2 -1 -15 -16 -29 -21 -26 -20 12 1
17 3 24 6 14 2 -9 9 -14 15 -11z m4 -61 c2 -22 0 -23 -14 -9 -13 14 -13 17 -1
25 8 5 14 9 14 9 0 0 1 -11 1 -25z m-19 -47 c-3 -8 -6 -5 -6 6 -1 11 2 17 5
13 3 -3 4 -12 1 -19z m363 -139 c16 -31 30 -64 30 -73 0 -16 -125 -80 -140
-71 -13 8 0 188 16 213 14 22 15 22 39 5 13 -10 38 -43 55 -74z m-1269 -174
c7 17 8 18 8 2 1 -10 -5 -20 -13 -23 -9 -3 -12 -12 -9 -21 5 -12 3 -14 -6 -8
-8 4 -17 2 -22 -6 -5 -8 -9 -9 -9 -3 0 6 7 17 15 24 8 7 16 22 16 34 1 20 2
20 7 1 l5 -20 8 20z m1956 -137 c-3 -8 -6 -5 -6 6 -1 11 2 17 5 13 3 -3 4 -12
1 -19z m-2027 -16 c-18 -33 -78 -97 -85 -91 -3 4 10 22 30 40 19 18 35 39 35
46 0 7 5 13 11 13 5 0 7 5 3 12 -4 7 -3 8 4 4 8 -5 9 -13 2 -24z m-80 -105 c0
-2 -9 -12 -20 -22 -24 -21 -27 -14 -4 9 15 15 24 20 24 13z m2037 -249 c-3 -8
-6 -5 -6 6 -1 11 2 17 5 13 3 -3 4 -12 1 -19z m-1372 -262 c11 5 15 -2 15 -26
0 -24 -4 -31 -14 -27 -10 4 -13 1 -9 -9 4 -11 -4 -14 -38 -13 -24 1 -36 3 -26
6 18 5 24 33 7 33 -19 0 -10 18 11 23 12 3 18 10 14 16 -3 6 -12 8 -18 4 -7
-4 -6 1 2 10 13 16 15 16 28 -2 7 -12 20 -18 28 -15z m-475 -26 c8 -5 11 -10
5 -10 -5 0 -17 5 -25 10 -8 5 -10 10 -5 10 6 0 17 -5 25 -10z m407 -23 c4 -7
0 -8 -11 -4 -10 4 -24 7 -32 7 -8 0 -14 4 -14 9 0 11 49 1 57 -12z m-337 3
c29 -9 119 -30 278 -65 30 -7 31 -45 0 -45 -21 0 -21 0 -2 16 19 15 18 15 -4
11 -14 -3 -20 -1 -15 6 4 6 -2 8 -15 5 -12 -3 -23 -1 -24 4 -2 5 -23 10 -46
11 -23 1 -42 5 -42 8 0 4 -33 14 -72 24 -75 18 -120 33 -103 34 6 1 26 -4 45
-9z m305 -19 c-8 -7 -56 10 -50 18 3 5 16 4 29 -2 14 -7 23 -14 21 -16z m159
10 c6 -10 -16 -21 -41 -21 -13 0 -13 3 -3 15 14 17 36 20 44 6z m179 -56 c1
-6 -10 -11 -25 -13 -30 -4 -37 -16 -13 -26 8 -3 15 -1 15 4 0 5 7 7 15 4 35
-14 10 -24 -60 -24 -60 0 -75 3 -75 15 0 17 16 20 25 5 9 -15 26 -1 23 18 -2
14 5 17 39 17 23 -1 39 3 36 8 -3 5 0 8 6 6 7 -3 13 -9 14 -14z m-306 -11 c-3
-3 -12 -4 -19 -1 -8 3 -5 6 6 6 11 1 17 -2 13 -5z m63 -9 c0 -19 -32 -35 -67
-34 -25 0 -26 1 -8 9 12 5 14 9 6 9 -8 1 -11 4 -8 7 4 4 13 2 20 -5 15 -12 47
-5 47 11 0 5 -9 6 -20 3 -11 -3 -20 -3 -20 2 0 5 11 10 25 11 16 1 25 -3 25
-13z m60 -4 c0 -6 -4 -13 -10 -16 -5 -3 -10 1 -10 9 0 9 5 16 10 16 6 0 10 -4
10 -9z m-907 -208 c-6 -103 -6 -103 -49 -103 -34 0 -36 1 -30 28 11 43 64 152
75 152 6 0 7 -30 4 -77z m691 -45 c27 -16 57 -40 67 -51 28 -34 73 -166 123
-367 26 -102 56 -216 68 -255 11 -38 48 -182 83 -320 59 -238 120 -468 152
-582 8 -29 11 -58 7 -64 -11 -18 -184 -4 -279 21 -44 12 -109 27 -145 34 -61
10 -65 13 -62 36 1 15 -5 31 -16 40 -19 15 -24 39 -62 320 -9 70 -24 222 -22
230 1 3 28 7 59 10 58 5 58 5 81 52 l24 47 -12 318 c-10 286 -13 321 -31 349
-18 29 -91 74 -121 74 -34 1 -37 14 -22 83 18 78 20 78 108 25z m-43 -1689
c12 -41 10 -124 -3 -141 -7 -9 -69 -36 -138 -59 -69 -22 -129 -44 -135 -48
-31 -22 -219 -59 -342 -68 -113 -7 -143 6 -143 63 0 19 5 44 10 54 15 27 69
83 111 114 32 23 39 25 51 13 11 -12 38 -13 143 -6 72 4 144 13 160 19 17 7
50 18 75 26 25 7 77 24 115 38 39 14 74 24 80 22 5 -1 12 -13 16 -27z m1256
-97 c17 -26 37 -58 43 -72 6 -14 20 -41 31 -60 14 -26 19 -55 19 -111 0 -68
-3 -78 -25 -99 -21 -20 -39 -25 -93 -28 -57 -3 -80 1 -149 28 -45 17 -97 42
-115 55 -18 13 -51 34 -73 46 -99 54 -206 130 -215 155 -24 61 -29 60 188 59
195 0 198 0 265 29 37 15 67 32 67 37 0 23 28 4 57 -39z"/>
<path d="M1812 6190 c0 -14 2 -19 5 -12 2 6 2 18 0 25 -3 6 -5 1 -5 -13z"/>
<path d="M3723 5793 c9 -2 25 -2 35 0 9 3 1 5 -18 5 -19 0 -27 -2 -17 -5z"/>
<path d="M3578 5773 c6 -2 18 -2 25 0 6 3 1 5 -13 5 -14 0 -19 -2 -12 -5z"/>
<path d="M2226 5823 c-6 -14 -5 -15 5 -6 7 7 10 15 7 18 -3 3 -9 -2 -12 -12z"/>
<path d="M3680 4661 c-20 -5 -26 -14 -28 -43 -3 -30 2 -42 22 -59 43 -38 58
-66 46 -89 -6 -11 -16 -17 -25 -14 -21 9 -19 -1 9 -30 27 -31 41 -34 24 -7
-10 16 -7 25 16 56 22 29 24 36 11 33 -10 -2 -22 5 -28 14 -9 13 -6 20 11 35
28 22 42 91 21 104 -16 10 -43 10 -79 0z"/>
<path d="M2586 3484 c-8 -32 -2 -41 18 -25 23 19 27 51 6 51 -11 0 -20 -10
-24 -26z"/>
<path d="M4160 4949 c0 -5 5 -7 10 -4 6 3 10 8 10 11 0 2 -4 4 -10 4 -5 0 -10
-5 -10 -11z"/>
<path d="M3378 3504 c-8 -8 3 -44 13 -44 5 0 9 11 9 25 0 24 -10 32 -22 19z"/>
</g>
</svg>
